<svg width="114" height="17" viewBox="0 0 114 17" fill="none" xmlns="http://www.w3.org/2000/svg">
<path d="M8.00349 11.3331L4.00349 13.3331L5.00349 9.3331L2.00349 5.99976L6.33682 5.66643L8.00349 1.99976L9.67015 5.66643L14.0035 5.99976L11.0035 9.3331L12.0035 13.3331L8.00349 11.3331Z" fill="#D8D138"/>
<path d="M8.00349 11.3331L4.00349 13.3331L5.00349 9.3331L2.00349 5.99976L6.33682 5.66643L8.00349 1.99976L9.67015 5.66643L14.0035 5.99976L11.0035 9.3331L12.0035 13.3331L8.00349 11.3331Z" fill="url(#paint0_linear_0_35)"/>
<path d="M20.372 12.188H24.2V14H25.184V12.188H26.54V11.276H25.184V6.224H23.804L20.372 11.036V12.188ZM24.2 11.276H21.296L24.2 7.196V11.276ZM27.6338 13.316C27.6338 13.736 27.9698 14.06 28.3778 14.06C28.7858 14.06 29.1218 13.736 29.1218 13.316C29.1218 12.896 28.7858 12.572 28.3778 12.572C27.9698 12.572 27.6338 12.896 27.6338 13.316ZM30.252 11.864C30.36 13.1 31.464 14.168 33.072 14.168C34.776 14.168 35.892 13.004 35.892 11.552C35.892 9.98 34.788 8.972 33.264 8.972C32.652 8.972 31.992 9.176 31.596 9.608L32.22 7.136H35.58V6.224H31.56L30.552 10.112L31.536 10.496C31.92 10.076 32.484 9.848 33.072 9.848C34.068 9.848 34.884 10.472 34.884 11.588C34.884 12.608 34.092 13.292 33.072 13.292C32.04 13.292 31.284 12.584 31.212 11.588L30.252 11.864ZM40.1112 10.196C40.1112 12.788 41.0952 14.588 42.3672 15.896L42.9552 15.38C41.7312 14.012 40.9512 12.368 40.9512 10.196C40.9512 8.024 41.7312 6.38 42.9552 5.012L42.3672 4.496C41.0952 5.816 40.1112 7.604 40.1112 10.196ZM45.9285 10.256C46.1445 10.184 46.3845 10.148 46.6365 10.148C47.5005 10.148 48.3405 10.64 48.3405 11.696C48.3405 12.584 47.6565 13.28 46.5525 13.28C45.5565 13.28 44.7285 12.608 44.6805 11.516L43.6965 11.744C43.7685 13.04 44.8365 14.168 46.5645 14.168C48.3165 14.168 49.3485 13.004 49.3485 11.684C49.3485 10.148 48.1485 9.332 47.0325 9.332C46.9605 9.332 46.8645 9.344 46.8045 9.356L49.1685 7.124V6.224H43.9365V7.136H47.8485L45.4365 9.428L45.9285 10.256ZM50.4083 11.864C50.5163 13.1 51.6203 14.168 53.2283 14.168C54.9323 14.168 56.0483 13.004 56.0483 11.552C56.0483 9.98 54.9443 8.972 53.4203 8.972C52.8083 8.972 52.1483 9.176 51.7523 9.608L52.3763 7.136H55.7363V6.224H51.7163L50.7083 10.112L51.6923 10.496C52.0763 10.076 52.6403 9.848 53.2283 9.848C54.2243 9.848 55.0403 10.472 55.0403 11.588C55.0403 12.608 54.2483 13.292 53.2283 13.292C52.1963 13.292 51.4403 12.584 51.3683 11.588L50.4083 11.864ZM57.0528 11.864C57.1608 13.1 58.2648 14.168 59.8728 14.168C61.5768 14.168 62.6928 13.004 62.6928 11.552C62.6928 9.98 61.5888 8.972 60.0648 8.972C59.4528 8.972 58.7928 9.176 58.3968 9.608L59.0208 7.136H62.3808V6.224H58.3608L57.3528 10.112L58.3368 10.496C58.7208 10.076 59.2848 9.848 59.8728 9.848C60.8688 9.848 61.6848 10.472 61.6848 11.588C61.6848 12.608 60.8928 13.292 59.8728 13.292C58.8408 13.292 58.0848 12.584 58.0128 11.588L57.0528 11.864ZM71.9879 14H73.1639L71.0999 10.364C72.3839 10.16 73.1759 9.212 73.1759 7.976C73.1759 6.596 72.1799 5.492 70.6079 5.492H67.5119V14H68.5199V10.436H69.9959L71.9879 14ZM68.5199 9.536V6.392H70.4519C71.4839 6.392 72.1679 7.016 72.1679 7.976C72.1679 8.924 71.4839 9.536 70.4519 9.536H68.5199ZM75.0207 10.568C75.0807 9.716 75.7527 8.936 76.7487 8.936C77.8407 8.936 78.4287 9.656 78.4527 10.568H75.0207ZM78.5847 12.068C78.3567 12.752 77.8287 13.304 76.8567 13.304C75.8247 13.304 74.9967 12.524 74.9967 11.432V11.384H79.4247C79.4367 11.3 79.4487 11.168 79.4487 11.048C79.4487 9.296 78.4767 8.084 76.7367 8.084C75.2847 8.084 74.0127 9.296 74.0127 11.108C74.0127 13.04 75.3207 14.168 76.8567 14.168C78.1887 14.168 79.0887 13.364 79.4127 12.368L78.5847 12.068ZM85.6336 8.252H84.6016L82.8616 12.884L81.1336 8.252H80.0536L82.3696 14H83.3416L85.6336 8.252ZM87.8257 14V8.252H86.8657V14H87.8257ZM86.6257 5.984C86.6257 6.38 86.9497 6.704 87.3457 6.704C87.7417 6.704 88.0657 6.38 88.0657 5.984C88.0657 5.588 87.7417 5.264 87.3457 5.264C86.9497 5.264 86.6257 5.588 86.6257 5.984ZM90.3136 10.568C90.3736 9.716 91.0456 8.936 92.0416 8.936C93.1336 8.936 93.7216 9.656 93.7456 10.568H90.3136ZM93.8776 12.068C93.6496 12.752 93.1216 13.304 92.1496 13.304C91.1176 13.304 90.2896 12.524 90.2896 11.432V11.384H94.7176C94.7296 11.3 94.7416 11.168 94.7416 11.048C94.7416 9.296 93.7696 8.084 92.0296 8.084C90.5776 8.084 89.3056 9.296 89.3056 11.108C89.3056 13.04 90.6136 14.168 92.1496 14.168C93.4816 14.168 94.3816 13.364 94.7056 12.368L93.8776 12.068ZM99.4732 8.252L97.8892 12.8L96.4852 8.252H95.4532L97.3612 14H98.3812L99.9652 9.416L101.573 14H102.581L104.453 8.252H103.433L102.065 12.8L100.469 8.252H99.4732ZM105.148 12.488C105.244 13.208 105.928 14.168 107.44 14.168C108.808 14.168 109.516 13.256 109.516 12.428C109.516 11.576 108.964 10.988 107.956 10.76L107.02 10.544C106.516 10.424 106.264 10.172 106.264 9.764C106.264 9.284 106.732 8.9 107.332 8.9C108.244 8.9 108.544 9.536 108.616 9.932L109.468 9.62C109.336 9.032 108.82 8.084 107.332 8.084C106.24 8.084 105.328 8.864 105.328 9.824C105.328 10.652 105.88 11.216 106.756 11.42L107.692 11.636C108.22 11.756 108.568 12.044 108.568 12.476C108.568 12.968 108.136 13.352 107.452 13.352C106.588 13.352 106.096 12.848 106.012 12.188L105.148 12.488ZM112.708 10.196C112.708 7.604 111.724 5.816 110.452 4.496L109.864 5.012C111.088 6.38 111.868 8.024 111.868 10.196C111.868 12.368 111.088 14.012 109.864 15.38L110.452 15.896C111.724 14.588 112.708 12.788 112.708 10.196Z" fill="#606060"/>
<defs>
<linearGradient id="paint0_linear_0_35" x1="13.7358" y1="9.85583" x2="2.46643" y2="9.61676" gradientUnits="userSpaceOnUse">
<stop stop-color="#DF9652"/>
<stop offset="1" stop-color="#B47820"/>
</linearGradient>
</defs>
</svg>
